<svg width="21" height="17" viewBox="0 0 21 17" fill="none" xmlns="http://www.w3.org/2000/svg">
<path d="M19.7225 11.77L17.8587 13.625L19.7225 15.48L18.48 16.7225L16.625 14.8588L14.77 16.7225L13.5363 15.48L15.3913 13.625L13.5363 11.77L14.77 10.5363L16.625 12.3913L18.48 10.5363L19.7225 11.77ZM10.5 4.875C9.0475 4.875 7.875 6.0475 7.875 7.5C7.875 8.9525 9.0475 10.125 10.5 10.125C11.9525 10.125 13.125 8.9525 13.125 7.5C13.125 6.0475 11.9525 4.875 10.5 4.875ZM10.5 11.875C8.085 11.875 6.125 9.915 6.125 7.5C6.125 5.085 8.085 3.125 10.5 3.125C12.915 3.125 14.875 5.085 14.875 7.5C14.875 7.9375 14.7875 8.375 14.6737 8.75125C15.2775 8.515 15.9338 8.375 16.625 8.375C17.605 8.375 18.5238 8.655 19.3112 9.11875C19.6262 8.61125 19.8975 8.06875 20.125 7.5C18.6112 3.65875 14.875 0.9375 10.5 0.9375C6.125 0.9375 2.38875 3.65875 0.875 7.5C2.38875 11.3413 6.125 14.0625 10.5 14.0625C10.8062 14.0625 11.1038 14.0625 11.4012 14.0188C11.375 13.8875 11.375 13.7563 11.375 13.625C11.375 12.9338 11.515 12.2775 11.7513 11.6738C11.375 11.7875 10.9375 11.875 10.5 11.875Z" fill="#888888"/>
</svg>
